<svg xmlns="http://www.w3.org/2000/svg" width="391.52" height="18.789" viewBox="0 0 391.52 18.789">
  <path id="パス_10" data-name="パス 10" d="M-194.94-6.18c1.52-1.5,2.44-1.86,3.66-1.86,1.16,0,2.2.42,4.22,1.52A8.143,8.143,0,0,0-183-5.22c1.68,0,3.2-.86,4.76-2.84l-.8-.84c-1.48,1.56-2.46,1.92-3.72,1.92-1.1,0-2.14-.42-4.22-1.52a8.3,8.3,0,0,0-4.06-1.26c-1.66,0-3.1.9-4.72,2.76ZM-155.9-.84c-4.78-2.6-7.3-6.48-8.16-12.34,0-.24,0-.48.02-.72a3.267,3.267,0,0,1,.16-1.32.861.861,0,0,0,.2-.5c0-.16-.12-.28-.38-.32-.72-.1-1.68-.2-2.46-.24.1.88.12,1.72.14,2.6.04,5.6-2.52,10.6-7.78,13.04A5.5,5.5,0,0,1-173,.7c.18.34.26.48.4.48a1.286,1.286,0,0,0,.46-.2A14.916,14.916,0,0,0-164.9-8.6,15.939,15.939,0,0,0-157.84.96c.24.16.36.24.46.24.14,0,.2-.14.36-.48A5.437,5.437,0,0,1-155.9-.84ZM-137.08.6c1.8,0,2.42.04,2.54.04.2,0,.22-.02.22-.22V-1.26c0-.2-.02-.22-.22-.22-.12,0-.74.04-2.54.04h-4.74V-5.08h2.5c1.96,0,2.64.04,2.76.04.2,0,.22-.02.22-.22V-6.88c0-.18-.02-.2-.22-.2-.12,0-.8.04-2.76.04h-2.5v-3.42h3.44c1.96,0,2.62.04,2.74.04.22,0,.24-.02.24-.22v-1.64c0-.2-.02-.22-.24-.22-.12,0-.78.04-2.74.04h-3.44v-1.1a7.934,7.934,0,0,1,.14-2.22.984.984,0,0,0,.1-.4c0-.1-.12-.2-.32-.22-.66-.08-1.48-.12-2.26-.14A18.917,18.917,0,0,1-144-13.5v1.04h-3.3l.48-1.32a1.971,1.971,0,0,1,.38-.76c.14-.16.2-.26.2-.36,0-.14-.14-.24-.36-.3-.56-.16-1.28-.36-1.94-.48a6.789,6.789,0,0,1-.28,1.32,17.014,17.014,0,0,1-3.22,5.84,4.926,4.926,0,0,1,1.26.9c.22.2.34.32.44.32.12,0,.2-.12.38-.36a15.268,15.268,0,0,0,1.76-2.8h4.2v3.42h-2.2c-1.96,0-2.64-.04-2.76-.04-.2,0-.22.02-.22.2v1.62c0,.2.02.22.22.22.12,0,.8-.04,2.76-.04h2.2v3.64h-5.02c-1.82,0-2.42-.04-2.54-.04-.2,0-.22.02-.22.22V.42c0,.2.02.22.22.22.12,0,.72-.04,2.54-.04Zm18.24-6.7c1.7-.7,3-1.14,4.3-1.6a6.4,6.4,0,0,1,1.22-.3c.2-.04.3-.12.3-.28a.791.791,0,0,0-.16-.44,12.32,12.32,0,0,0-1.4-1.76A6.015,6.015,0,0,1-116.1-9.4c-1.02.52-2.16,1.04-2.94,1.4a2.209,2.209,0,0,0-2.44-2.16,3.98,3.98,0,0,0-2,.62l-.02-.04A20.639,20.639,0,0,0-122-11.8c1.46-.16,3.18-.38,4.68-.6.28-.04.36-.12.34-.32a6.743,6.743,0,0,0-.2-1.44c-.04-.18-.1-.24-.32-.2a32.174,32.174,0,0,1-3.64.62c.24-.54.34-.8.46-1.08a1.558,1.558,0,0,1,.34-.48.386.386,0,0,0,.14-.3.359.359,0,0,0-.24-.34,12.628,12.628,0,0,0-2.28-.56,4.868,4.868,0,0,1-.14,1.22,15.41,15.41,0,0,1-.6,1.72,44.115,44.115,0,0,1-4.6.02c.06.6.14,1.34.2,1.66.04.22.1.32.28.32,1.18,0,2.26-.02,3.2-.06a20.438,20.438,0,0,1-4.18,4.96c-.1.08-.14.14-.14.22a.325.325,0,0,0,.08.18,9.513,9.513,0,0,0,1.14,1.32.4.4,0,0,0,.22.14c.08,0,.14-.06.24-.18a26.952,26.952,0,0,1,2-2.18,4.828,4.828,0,0,1,2.76-1.44c.9-.04,1.14.36,1.2,1.38-3.02,1.56-4.22,2.96-4.22,4.88,0,2.32,1.74,3.3,5.02,3.3A35.573,35.573,0,0,0-115.3.7c.16,0,.24-.14.22-.38a8.951,8.951,0,0,0-.18-1.64c-.02-.18-.1-.24-.28-.22a34.18,34.18,0,0,1-4.98.4c-2.1,0-2.78-.54-2.78-1.38,0-.96.64-1.74,2.42-2.66-.02.72-.02,1.72-.02,2.44,0,.2.08.32.26.32a10.819,10.819,0,0,0,1.42-.1c.26-.04.38-.14.38-.36Zm14.56.08a13.045,13.045,0,0,1-3.98,4.12,4.234,4.234,0,0,1,.88,1.16c.14.28.22.4.32.4s.22-.1.42-.28a12.273,12.273,0,0,0,2.98-3.68c-.02,3.12-.08,5.3-.08,5.66,0,.18.02.2.24.2h1.56c.2,0,.22-.02.22-.2,0-.38-.04-2.7-.08-5.96a9.779,9.779,0,0,0,1.96,2.22c.24.2.36.32.46.32s.18-.14.36-.4a7.12,7.12,0,0,1,.96-1.08,12.064,12.064,0,0,1-3.22-2.48h.3c1.64,0,2.24.04,2.36.04.22,0,.24-.02.24-.24V-7.54c0-.22-.02-.24-.24-.24-.12,0-.72.04-2.36.04h-.76v-.14a3.018,3.018,0,0,1,.1-1.1.853.853,0,0,0,.12-.36c0-.12-.12-.18-.3-.2-.62-.06-1.28-.1-2-.12a8.85,8.85,0,0,1,.12,1.78v.14h-1.34c-1.78,0-2.38-.04-2.5-.04-.2,0-.22.02-.22.24v1.32c0,.22.02.24.22.24.12,0,.72-.04,2.5-.04Zm4.56,5.74a4.828,4.828,0,0,1,1.1,1.2c.18.28.3.4.48.4a2.027,2.027,0,0,0,.66-.22,21.335,21.335,0,0,0,6.7-4.64,3.456,3.456,0,0,1,.82-.72c.16-.06.28-.14.28-.28,0-.1-.04-.18-.18-.32A13.872,13.872,0,0,0-91.52-6.2a5.425,5.425,0,0,1-.82,1.16A20.563,20.563,0,0,1-99.72-.28Zm7.24-16.34a7.008,7.008,0,0,1-.78.92,15.2,15.2,0,0,1-4.56,3.08q-.03-.12-.24-.24a9.76,9.76,0,0,0-1.68-.62A6.123,6.123,0,0,1-100-12.4a11.888,11.888,0,0,1-1.28,2.74,5.479,5.479,0,0,1,.96.34,1.2,1.2,0,0,0,.5.22c.14,0,.22-.14.4-.44a16.122,16.122,0,0,0,1.1-2.2,1.824,1.824,0,0,1,.34-.56.628.628,0,0,0,.16-.2,4.7,4.7,0,0,1,.92,1.14c.14.22.24.32.38.32a1.846,1.846,0,0,0,.68-.26,19.987,19.987,0,0,0,3.98-2.86,2.4,2.4,0,0,1,.84-.58c.14-.04.22-.1.24-.22a.57.57,0,0,0-.22-.42A10.527,10.527,0,0,0-92.48-16.62Zm.6,5a4.706,4.706,0,0,1-.76.96,19.48,19.48,0,0,1-5.64,3.78,4.738,4.738,0,0,1,1,1.22c.14.22.22.34.38.34a1.834,1.834,0,0,0,.64-.24,22.75,22.75,0,0,0,5.12-3.6,2.066,2.066,0,0,1,.74-.52c.16-.06.24-.16.24-.28a.508.508,0,0,0-.18-.36A14.029,14.029,0,0,0-91.88-11.62Zm-7.68-5.06a5.169,5.169,0,0,1-1.2.58,30.729,30.729,0,0,1-7,1.24,6.168,6.168,0,0,1,.7,1.16c.24.62.24.62.88.54a37.539,37.539,0,0,0,6.74-1.48,2.91,2.91,0,0,1,.82-.18c.22-.02.36-.12.36-.24a.554.554,0,0,0-.12-.36A7.369,7.369,0,0,0-99.56-16.68Zm-7.54,4.72c-.26.1-.28.14-.16.32a10.383,10.383,0,0,1,1,2.12c.06.2.12.22.36.1l1.08-.42c.28-.12.28-.14.22-.36a8.581,8.581,0,0,0-1.08-2.08c-.12-.2-.18-.2-.4-.1Zm3.24-.76c-.24.08-.3.1-.18.28a8.263,8.263,0,0,1,.78,2.14c.06.2.12.2.4.12l1.06-.3c.28-.06.32-.1.26-.34a8.527,8.527,0,0,0-.84-2.12c-.1-.18-.16-.2-.4-.12Zm25.6,4.28c1.52-1.46,2.86-2.86,4.32-4.28a3.228,3.228,0,0,1,.88-.64.529.529,0,0,0,.34-.48.694.694,0,0,0-.22-.48,7.568,7.568,0,0,0-1.34-1.28.713.713,0,0,0-.46-.16,1.033,1.033,0,0,0-.38.16,5.307,5.307,0,0,1-1.1.3c-1.56.3-3.32.56-4.54.68a9.639,9.639,0,0,1-1.86-.04,9.576,9.576,0,0,0,.7,2.16.455.455,0,0,0,.44.34,1.467,1.467,0,0,0,.4-.1,6.156,6.156,0,0,1,.84-.24c1.24-.26,2.66-.54,3.86-.76-.92,1.14-1.86,2.14-3.1,3.42a48.142,48.142,0,0,1-4.74,4.42c-.16.16-.22.3-.1.46a9,9,0,0,0,1.18,1.3.491.491,0,0,0,.3.18c.1,0,.2-.08.34-.22.6-.6,1.16-1.18,1.74-1.7a8.142,8.142,0,0,1,5.12-2.12A2.92,2.92,0,0,1-72.5-4.5a3.013,3.013,0,0,1-2.04,3.04A3.64,3.64,0,0,0-78.3-4.38a2.654,2.654,0,0,0-2.82,2.44C-81.12-.08-79.6,1-77.08,1c4.28,0,6.98-2.14,6.98-5.48a4.642,4.642,0,0,0-4.96-4.8,6.019,6.019,0,0,0-3.18.9Zm1.74,7.48a4.379,4.379,0,0,1-.92.08c-1.2,0-1.74-.42-1.74-1.04,0-.42.38-.76.96-.76C-77.38-2.68-76.78-2.06-76.52-.96Zm17.94-5.32c-1.46.84-2.4,1.38-3.26,1.86a7.385,7.385,0,0,1-1.84.7c.3.66.7,1.5.92,1.86a.561.561,0,0,0,.44.32.5.5,0,0,0,.34-.14,3.625,3.625,0,0,1,.64-.44A12.3,12.3,0,0,1-58.5.44c.18.26.26.42.48.4A8.129,8.129,0,0,0-56.54.6c.34-.08.3-.38.3-.66,0-.46-.1-1.72-.16-2.6-.04-.88-.06-1.56-.08-2.4A9.891,9.891,0,0,1-51.9-6.42c1.4,0,2.2.72,2.2,2.02a1.985,1.985,0,0,1-2.16,2.06,7.46,7.46,0,0,1-2.5-.36,3.5,3.5,0,0,1,.6,1.7.536.536,0,0,0,.44.6,7.751,7.751,0,0,0,1.64.18c2.7,0,4.34-1.5,4.34-4.06a3.958,3.958,0,0,0-4.26-4,12.623,12.623,0,0,0-4.92,1.1c.02-.96.02-1.94.04-2.9a20.385,20.385,0,0,0,2.86-.76c.2-.06.26-.12.26-.32a10.052,10.052,0,0,0-.12-1.56c-.02-.2-.16-.24-.34-.18a19.612,19.612,0,0,1-2.56.74c.02-.64.04-1.14.1-1.66A2.448,2.448,0,0,1-56-14.6a.709.709,0,0,0,.12-.32c0-.18-.16-.32-.4-.38a11.335,11.335,0,0,0-2.38-.36,7.394,7.394,0,0,1,.14,1.62c0,.86-.02,1.62-.02,2.28-.84.08-1.7.16-2.54.16a10.217,10.217,0,0,1-1.56-.1c.08.7.16,1.36.22,1.74.04.3.14.42.48.42,1.34,0,2.36-.08,3.36-.16Zm.1,2.1c.04.66.08,1.58.12,2.1.02.18-.04.2-.2.16a20.51,20.51,0,0,1-1.88-.9C-59.72-3.34-59.04-3.8-58.48-4.18Zm6.68-7.58A9.232,9.232,0,0,1-47.74-9.3c.06.1.34.08.4,0,.3-.4.82-1.02,1.08-1.42a.519.519,0,0,0,.08-.2c0-.06-.04-.12-.12-.2a9.507,9.507,0,0,0-4.24-2.44c-.14-.04-.2.02-.34.24A12.27,12.27,0,0,0-51.8-11.76Zm18.28,3.5c-1.88,0-2.52-.04-2.62-.04-.2,0-.22.02-.22.22v1.42c0,.18.02.2.22.2.06,0,.42-.02,1.24-.02a12.741,12.741,0,0,0,2.66,4.1A15.9,15.9,0,0,1-37.42-.24,3.881,3.881,0,0,1-36.64.98c.24.6.24.6.84.44a16.453,16.453,0,0,0,5.12-2.46,16.472,16.472,0,0,0,5.3,2.4c.62.16.64.14.86-.46a4.915,4.915,0,0,1,.76-1.36,15.358,15.358,0,0,1-5.38-1.88,14.081,14.081,0,0,0,2.68-3.6c.26-.5.36-.66.54-.76A.4.4,0,0,0-25.7-7c0-.16-.14-.4-.6-.9-.42-.42-.6-.54-.76-.54a.569.569,0,0,0-.24.08.9.9,0,0,1-.48.1Zm5.06,1.76a10.4,10.4,0,0,1-2.28,2.96A9.069,9.069,0,0,1-32.88-6.5Zm-1.3-7.76v3.1A1.511,1.511,0,0,0-29.2-9.8a4.163,4.163,0,0,0,1.98.32c1.44,0,2.12-.12,2.52-.52.38-.36.54-.74.66-2.08.06-.6.06-.64-.44-.74a3.6,3.6,0,0,1-1.3-.5,3.556,3.556,0,0,1-.26,1.7c-.14.2-.28.28-.84.28-.48,0-.66-.06-.74-.16-.1-.12-.12-.26-.12-.64v-2.2c0-1,.04-1.5.04-1.62,0-.2-.02-.22-.24-.22-.12,0-.56.04-1.94.04h-2.26c-1.38,0-1.8-.04-1.92-.04-.2,0-.22.02-.22.22,0,.12.04.42.04.9,0,2.56-.38,3.74-2.14,4.94a3.457,3.457,0,0,1,1.18.92c.22.28.34.4.48.4.1,0,.24-.1.46-.32,1.48-1.36,2.04-2.7,2.08-5.14ZM-40.04-1.12c0,1.6-.02,2.36-.02,2.46,0,.22,0,.24.2.24h1.62c.18,0,.2-.02.2-.24,0-.1-.04-.86-.04-2.46V-8.36c.46-.6.88-1.22,1.28-1.84a1.466,1.466,0,0,1,.42-.48.234.234,0,0,0,.16-.22c0-.14-.08-.2-.26-.34a12.112,12.112,0,0,0-1.58-.92,6.284,6.284,0,0,1-.46,1.06,13.781,13.781,0,0,1-4,4.44,4.945,4.945,0,0,1,.66,1.42c.08.3.16.44.26.44s.24-.1.46-.28q.57-.51,1.14-1.08c-.02.72-.04,1.5-.04,2.1Zm1.9-15.62a4.666,4.666,0,0,1-.6.9,13.441,13.441,0,0,1-3.58,3.18,4.739,4.739,0,0,1,.86,1.18c.16.32.24.44.36.44.08,0,.2-.08.44-.24a17.938,17.938,0,0,0,3.48-3.32,2.18,2.18,0,0,1,.56-.54c.2-.12.3-.18.3-.34,0-.14-.08-.24-.26-.36A8.564,8.564,0,0,0-38.14-16.74ZM-4.7.58c1.76,0,2.36.04,2.48.04C-2.02.62-2,.6-2,.4V-1.28c0-.2-.02-.22-.22-.22-.12,0-.72.04-2.48.04H-8.08c.84-2.14,1.6-4.34,2.3-6.74A2.128,2.128,0,0,1-5.4-9a.6.6,0,0,0,.2-.4c0-.12-.06-.22-.24-.28a19.714,19.714,0,0,0-2.28-.68,12.409,12.409,0,0,1-.32,1.92,62.068,62.068,0,0,1-2.24,6.98H-17.3c-1.76,0-2.36-.04-2.48-.04-.18,0-.2.02-.2.22V.4c0,.2.02.22.2.22.12,0,.72-.04,2.48-.04Zm-1.08-11.8c1.9,0,2.56.04,2.68.04.2,0,.22-.02.22-.24v-1.62c0-.22-.02-.24-.22-.24-.12,0-.78.04-2.68.04h-4.28v-1.54a3.631,3.631,0,0,1,.1-1.12,1.129,1.129,0,0,0,.12-.4c0-.1-.14-.2-.32-.22-.72-.06-1.46-.1-2.2-.1a7.789,7.789,0,0,1,.14,1.84v1.54h-3.96c-1.88,0-2.54-.04-2.66-.04-.2,0-.22.02-.22.24v1.62c0,.22.02.24.22.24.12,0,.78-.04,2.66-.04Zm-10.7,1.56c-.28.1-.3.12-.22.32a25.288,25.288,0,0,1,1.88,6.72c.04.22.1.24.38.14L-12.88-3c.28-.08.28-.14.24-.34a26.968,26.968,0,0,0-2-6.72c-.08-.2-.12-.22-.38-.12ZM7.3-12.48c-1.54.12-2.78.18-4.34.18.08.66.22,1.5.28,1.74a.341.341,0,0,0,.38.28c1.02,0,2.28-.1,3.36-.18-.34,2-.62,3.48-1.06,5.24-.08.3-.16.6-.26.94a1.364,1.364,0,0,0-.08.4c0,.18.12.26.44.4a5.622,5.622,0,0,0,1.5.44c.18.02.24-.06.38-.3.18-.26.38-.5.56-.76a6.65,6.65,0,0,1,5.26-2.48c1.52,0,2.28.86,2.28,1.9,0,1.26-.74,2.18-2.28,2.82A15.579,15.579,0,0,1,7.98-.76,3.817,3.817,0,0,1,9.06.66c.16.38.3.48.5.48A9.264,9.264,0,0,0,11.04,1a13.321,13.321,0,0,0,5.1-1.6,4.482,4.482,0,0,0,2.28-4.04c0-2.06-1.8-3.78-4.46-3.78A8.651,8.651,0,0,0,8.22-6.3c.36-1.4.64-2.74.92-4.4,1.68-.22,2.76-.44,4.48-.82.18-.04.24-.1.24-.32a9.051,9.051,0,0,0-.14-1.48c-.04-.26-.14-.28-.42-.2a36.575,36.575,0,0,1-3.76.74c.1-.7.18-1.1.28-1.64a2.075,2.075,0,0,1,.34-.74.657.657,0,0,0,.14-.32c0-.16-.14-.28-.4-.36a13.09,13.09,0,0,0-2.4-.42,6.636,6.636,0,0,1,.04,1.94C7.48-13.84,7.4-13.18,7.3-12.48Zm33.14,7.2c0-1.48.04-2.22.04-2.34,0-.22-.02-.24-.22-.24-.14,0-.72.04-2.48.04H33.8c-1.76,0-2.36-.04-2.48-.04-.22,0-.24.02-.24.24,0,.12.04.76.04,2.16V-.78c0,1.42-.04,2.02-.04,2.12,0,.22.02.24.24.24h1.56c.22,0,.24-.02.24-.24,0-.1-.04-.76-.04-2.16v-.92H38.5v.8c0,.4-.12.6-.7.6-.36,0-.9-.02-1.36-.06A4.636,4.636,0,0,1,36.9.84c.14.64.16.64.78.62,1.46-.04,1.94-.2,2.28-.5a2.1,2.1,0,0,0,.52-1.68c0-.62-.04-1.78-.04-2.78ZM33.08-3.06v-.98H38.5v.98ZM38.5-6.3v.94H33.08V-6.3Zm.66-2.36c1.92,0,2.6.02,2.7.02.2,0,.22,0,.22-.22V-10c0-.2-.02-.22-.22-.22-.1,0-.78.04-2.7.04H36.68v-.92h1.36c1.78,0,2.38.04,2.5.04.2,0,.22-.02.22-.24v-1c0-.2-.02-.22-.22-.22-.12,0-.72.04-2.5.04H36.68v-.9H38.6c1.86,0,2.5.04,2.62.04.22,0,.24-.02.24-.22v-1.08c0-.22-.02-.24-.24-.24-.12,0-.76.04-2.62.04H36.68a4.356,4.356,0,0,1,.08-1.1,1.978,1.978,0,0,0,.14-.52c0-.08-.1-.18-.32-.2-.68-.08-1.24-.12-1.98-.14.08.7.12,1.26.14,1.96H33.42c-1.88,0-2.52-.04-2.64-.04-.2,0-.22.02-.22.24v1.08c0,.2.02.22.22.22.12,0,.76-.04,2.64-.04h1.32v.9h-1c-1.8,0-2.38-.04-2.52-.04-.2,0-.22.02-.22.22v1c0,.22.02.24.22.24.14,0,.72-.04,2.52-.04h1v.92H33.06c-1.94,0-2.6-.04-2.72-.04-.2,0-.22.02-.22.22v1.14c0,.22.02.22.22.22.12,0,.78-.02,2.72-.02ZM26.38-2.16c0,2.24-.04,3.38-.04,3.48,0,.22.02.24.22.24h1.62c.2,0,.22-.02.22-.24,0-.1-.04-1.24-.04-3.5V-13.8a7.935,7.935,0,0,1,.14-2.22.984.984,0,0,0,.1-.4c0-.1-.12-.18-.32-.2-.66-.08-1.3-.12-2.06-.14a18.372,18.372,0,0,1,.16,3.02Zm-1.74-10.4c-.28-.06-.32-.08-.32.12a16.61,16.61,0,0,1-.64,4.06c-.06.2-.04.3.22.4l.96.4c.22.1.26.12.32-.08a17.356,17.356,0,0,0,.68-4.38c.02-.22-.02-.26-.28-.32Zm3.98-.4c-.26.08-.28.12-.2.34a15,15,0,0,1,.74,2.42c.04.22.1.22.36.12l.84-.3c.26-.1.28-.14.22-.34a14.555,14.555,0,0,0-.82-2.38c-.08-.18-.14-.2-.36-.12ZM57.16-9.5v-4.52h4.42a4.6,4.6,0,0,1-.14,1.24c-.12.4-.32.52-.84.52a11.3,11.3,0,0,1-1.56-.12,7.259,7.259,0,0,1,.32,1.28c.08.48.1.48.56.52.36.02.72.02,1.06.02,1.24,0,1.8-.28,2.18-1.06a8.426,8.426,0,0,0,.44-3c.02-.34.02-.64.06-1.02.02-.2-.06-.26-.26-.26-.12,0-.66.04-2.26.04H57.92c-1.58,0-2.36-.04-2.48-.04-.22,0-.24.02-.24.22,0,.14.04,1.5.04,4.24v8.62c0,2.72-.04,4.04-.04,4.18,0,.18.02.2.24.2h1.54c.2,0,.22-.02.22-.2,0-.08-.02-.6-.04-1.54A5,5,0,0,1,58.02,1c.16.28.24.42.36.42.1,0,.2-.1.4-.28a17.507,17.507,0,0,0,1.7-2.02,17.877,17.877,0,0,0,2.4,2.16c.2.14.32.22.4.22.12,0,.2-.14.34-.44A4.591,4.591,0,0,1,64.4-.3a13.3,13.3,0,0,1-2.86-2.32,18.445,18.445,0,0,0,1.62-4.62A1.415,1.415,0,0,1,63.5-8a.482.482,0,0,0,.14-.34c0-.14-.08-.28-.56-.78-.48-.48-.64-.54-.76-.54a.521.521,0,0,0-.3.08,1.108,1.108,0,0,1-.56.08Zm0,1.8h.14a14.638,14.638,0,0,0,1.96,5.2,13.677,13.677,0,0,1-2.1,2.26Zm4.24,0a15.965,15.965,0,0,1-1.08,3.42A13.118,13.118,0,0,1,58.98-7.7ZM48.9-3.62c-1.56,0-2.08-.04-2.2-.04-.2,0-.22.02-.22.22V-2.2c0,.2.02.22.22.22.12,0,.64-.04,2.2-.04h.66v1.3c0,1.34-.04,1.96-.04,2.08,0,.2.02.22.22.22H51.3c.2,0,.22-.02.22-.22,0-.1-.04-.74-.04-2.08v-1.3h.54c1.56,0,2.06.04,2.18.04.2,0,.22-.02.22-.22V-3.44c0-.2-.02-.22-.22-.22-.12,0-.62.04-2.18.04h-.54V-5.26h.74c1.7,0,2.24.04,2.36.04.2,0,.22-.02.22-.24V-6.7c0-.2-.02-.22-.22-.22-.12,0-.6.04-1.92.04.26-.52.42-.9.64-1.46a1.067,1.067,0,0,1,.26-.38.3.3,0,0,0,.14-.24c0-.1-.08-.16-.28-.22a14.71,14.71,0,0,0-1.68-.4,6.868,6.868,0,0,1-.2.94c-.18.58-.4,1.18-.64,1.76H48.54c-1.68,0-2.24-.04-2.34-.04-.2,0-.22.02-.22.22v1.24c0,.22.02.24.22.24.1,0,.66-.04,2.34-.04h1.02v1.64Zm-.34-7.7c-1.68,0-2.24-.04-2.34-.04-.22,0-.24.02-.24.24v1.24c0,.2.02.22.24.22.1,0,.66-.04,2.34-.04h3.6c1.72,0,2.26.04,2.38.04.2,0,.22-.02.22-.22v-1.24c0-.22-.02-.24-.22-.24-.12,0-.66.04-2.38.04h-.68V-12.9h.44c1.54,0,2.04.04,2.16.04.18,0,.2-.02.2-.22v-1.26c0-.18-.02-.2-.2-.2-.12,0-.62.04-2.16.04h-.44v-.54a2.2,2.2,0,0,1,.12-1,.771.771,0,0,0,.12-.36c0-.1-.1-.18-.32-.2a18.412,18.412,0,0,0-1.98-.14,12.722,12.722,0,0,1,.14,2.2v.04h-.54c-1.54,0-2.04-.04-2.16-.04-.2,0-.22.02-.22.2v1.26c0,.2.02.22.22.22.12,0,.62-.04,2.16-.04h.54v1.58Zm1,4.04c.26-.08.26-.14.2-.34a10.139,10.139,0,0,0-.68-1.74c-.08-.16-.14-.2-.36-.14l-1.1.34c-.24.08-.28.1-.18.32a12.558,12.558,0,0,1,.66,1.76c.06.2.1.22.36.14Zm29.46-5.8c1.22,0,2.16.04,2.82.04.3.02.36-.06.36-.4a10.155,10.155,0,0,0,0-1.56c0-.22-.06-.32-.24-.32-.78.04-1.84.1-3.14.1h-3.6a27.554,27.554,0,0,1-3.28-.14,17.432,17.432,0,0,0,.1,1.92c.02.32.08.44.28.44.84-.06,1.84-.08,2.74-.08ZM80.54-8.8c-1.44,3.86-4.7,6.62-8.4,8.34A5.863,5.863,0,0,1,74,.58a.653.653,0,0,0,.44.24.961.961,0,0,0,.4-.14A17.481,17.481,0,0,0,83-8.16a2.291,2.291,0,0,1,.68-.94.482.482,0,0,0,.22-.38.589.589,0,0,0-.2-.42,11.8,11.8,0,0,0-1.34-1.24.515.515,0,0,0-.3-.14.43.43,0,0,0-.26.12,2.2,2.2,0,0,1-1.06.22H73.88a35.394,35.394,0,0,1-3.68-.16,15.163,15.163,0,0,0,.22,2.02c.04.26.12.38.3.38,1-.06,2-.08,3-.08Zm20.74-1.56a31.66,31.66,0,0,0,2.34-2.52,6.589,6.589,0,0,1,1.2-1.1.572.572,0,0,0,.28-.44.354.354,0,0,0-.16-.3,17.793,17.793,0,0,0-2.22-1.4,5.8,5.8,0,0,1-1.26,2.06A32.449,32.449,0,0,1,97.2-9.88a32.1,32.1,0,0,1-6.3,4.1A7.486,7.486,0,0,1,92.62-4.6a.557.557,0,0,0,.42.2.564.564,0,0,0,.3-.08,34.6,34.6,0,0,0,5.5-3.84v4.66c0,1.36-.06,2.66-.08,4.1-.02.24.06.32.28.32a16.682,16.682,0,0,0,2,0c.22,0,.32-.08.3-.34-.04-1.6-.06-2.78-.06-4.16Zm23.06-.86a16.834,16.834,0,0,1-3.38,5.7,19.329,19.329,0,0,1-6.54,5,5.947,5.947,0,0,1,1.86,1.1.7.7,0,0,0,.5.22.968.968,0,0,0,.54-.18A22.427,22.427,0,0,0,123-4.14a23.552,23.552,0,0,0,3.88-6.5,2.408,2.408,0,0,1,.46-.78.682.682,0,0,0,.28-.5.5.5,0,0,0-.14-.34,6.155,6.155,0,0,0-1.46-1.32.978.978,0,0,0-.38-.1.564.564,0,0,0-.3.08,1.913,1.913,0,0,1-1.1.2H117.1a35,35,0,0,1-3.84-.14c.04.58.12,1.62.18,2.02.04.28.12.42.38.4.86-.04,2-.1,3.3-.1Zm1.58-4.06a9.924,9.924,0,0,1,2.02,2.32.209.209,0,0,0,.34.06l.74-.54a.2.2,0,0,0,.06-.32,9.2,9.2,0,0,0-1.9-2.14c-.12-.1-.2-.12-.3-.04Zm1.74-1.24a9.462,9.462,0,0,1,2,2.3.213.213,0,0,0,.18.14.239.239,0,0,0,.16-.08l.66-.54c.16-.14.14-.24.06-.36a8.353,8.353,0,0,0-1.9-2.06c-.12-.1-.18-.12-.3-.04Zm17.36,3.44c1.22,0,2.16.04,2.82.04.3.02.36-.06.36-.4a10.153,10.153,0,0,0,0-1.56c0-.22-.06-.32-.24-.32-.78.04-1.84.1-3.14.1h-3.6a27.554,27.554,0,0,1-3.28-.14,17.433,17.433,0,0,0,.1,1.92c.02.32.08.44.28.44.84-.06,1.84-.08,2.74-.08Zm1.52,4.28c-1.44,3.86-4.7,6.62-8.4,8.34A5.863,5.863,0,0,1,140,.58a.653.653,0,0,0,.44.24.961.961,0,0,0,.4-.14A17.481,17.481,0,0,0,149-8.16a2.291,2.291,0,0,1,.68-.94.482.482,0,0,0,.22-.38.589.589,0,0,0-.2-.42,11.8,11.8,0,0,0-1.34-1.24.515.515,0,0,0-.3-.14.43.43,0,0,0-.26.12,2.2,2.2,0,0,1-1.06.22h-6.86a35.394,35.394,0,0,1-3.68-.16,15.162,15.162,0,0,0,.22,2.02c.04.26.12.38.3.38,1-.06,2-.08,3-.08Zm13.74.2c0,.86-.06,2.02-.06,2.72-.02.24.1.34.38.34h1.6c.32,0,.44-.1.44-.4-.02-.7-.06-1.48-.06-2.52V-12.5a4.6,4.6,0,0,1,.22-1.9.838.838,0,0,0,.08-.3c0-.14-.1-.26-.34-.32a14.8,14.8,0,0,0-2.48-.42,13.693,13.693,0,0,1,.22,2.92Zm9.42-3.9a6.025,6.025,0,0,1,.18-2.18.633.633,0,0,0,.08-.32.336.336,0,0,0-.28-.34,12.516,12.516,0,0,0-2.6-.44,14.685,14.685,0,0,1,.22,3.26v3.78c0,2.54-.42,4.2-1.34,5.34a9.772,9.772,0,0,1-4.88,2.92,6.5,6.5,0,0,1,1.7,1.22.649.649,0,0,0,.48.24,1.264,1.264,0,0,0,.42-.1,10.319,10.319,0,0,0,4.4-3.14c1.18-1.58,1.62-3.56,1.62-6.52Zm9.36,6.32c1.52-1.5,2.44-1.86,3.66-1.86,1.16,0,2.2.42,4.22,1.52A8.143,8.143,0,0,0,191-5.22c1.68,0,3.2-.86,4.76-2.84l-.8-.84c-1.48,1.56-2.46,1.92-3.72,1.92-1.1,0-2.14-.42-4.22-1.52a8.3,8.3,0,0,0-4.06-1.26c-1.66,0-3.1.9-4.72,2.76Z" transform="translate(195.76 17.209)"/>
</svg>
